<svg xmlns="http://www.w3.org/2000/svg" viewBox="0 0 1440 600" preserveAspectRatio="xMidYMax slice">

  <!-- Plan lointain -->
  <path d="M0,430 L55,268 L88,308 L148,228 L202,278 L258,195 L312,248 L370,185 L425,238 L482,172 L538,228 L595,165 L652,220 L710,160 L768,215 L828,158 L888,214 L948,162 L1008,218 L1068,165 L1128,222 L1188,168 L1248,226 L1308,172 L1370,230 L1440,185 L1440,600 L0,600 Z"
    fill="rgba(40,75,135,0.28)"/>

  <!-- Plan milieu -->
  <path d="M0,490 L65,358 L105,398 L168,305 L232,368 L295,285 L368,352 L432,272 L502,342 L572,268 L645,338 L712,260 L782,332 L852,258 L922,330 L995,262 L1068,338 L1138,268 L1210,345 L1280,278 L1355,355 L1440,295 L1440,600 L0,600 Z"
    fill="rgba(28,58,108,0.52)"/>

  <!-- Neige plan milieu -->
  <path d="M168,305 L184,332 L168,324 L152,332 Z" fill="rgba(255,255,255,0.2)"/>
  <path d="M295,285 L312,315 L295,306 L278,315 Z" fill="rgba(255,255,255,0.2)"/>
  <path d="M432,272 L450,304 L432,294 L414,304 Z" fill="rgba(255,255,255,0.2)"/>
  <path d="M572,268 L590,300 L572,290 L554,300 Z" fill="rgba(255,255,255,0.22)"/>
  <path d="M712,260 L730,292 L712,282 L694,292 Z" fill="rgba(255,255,255,0.2)"/>
  <path d="M852,258 L870,292 L852,280 L834,292 Z" fill="rgba(255,255,255,0.22)"/>
  <path d="M995,262 L1014,295 L995,285 L976,295 Z" fill="rgba(255,255,255,0.2)"/>
  <path d="M1138,268 L1157,302 L1138,291 L1119,302 Z" fill="rgba(255,255,255,0.2)"/>
  <path d="M1280,278 L1300,312 L1280,301 L1260,312 Z" fill="rgba(255,255,255,0.2)"/>

  <!-- Plan premier plan -->
  <path d="M0,560 L75,425 L125,468 L195,388 L265,448 L338,372 L415,442 L488,368 L568,448 L648,378 L728,458 L805,392 L882,468 L960,402 L1042,482 L1122,418 L1202,496 L1282,430 L1362,508 L1440,450 L1440,600 L0,600 Z"
    fill="rgba(18,38,72,0.80)"/>

  <!-- Neige premier plan -->
  <path d="M195,388 L215,418 L195,408 L175,418 Z" fill="rgba(255,255,255,0.28)"/>
  <path d="M338,372 L360,404 L338,394 L316,404 Z" fill="rgba(255,255,255,0.28)"/>
  <path d="M488,368 L510,400 L488,390 L466,400 Z" fill="rgba(255,255,255,0.3)"/>
  <path d="M648,378 L670,410 L648,400 L626,410 Z" fill="rgba(255,255,255,0.28)"/>
  <path d="M805,392 L827,424 L805,414 L783,424 Z" fill="rgba(255,255,255,0.28)"/>
  <path d="M960,402 L982,434 L960,424 L938,434 Z" fill="rgba(255,255,255,0.28)"/>
  <path d="M1122,418 L1144,450 L1122,440 L1100,450 Z" fill="rgba(255,255,255,0.28)"/>
  <path d="M1282,430 L1304,462 L1282,452 L1260,462 Z" fill="rgba(255,255,255,0.28)"/>

</svg>
